<?xml version="1.0" encoding="UTF-8" standalone="no"?>
<svg
   xmlns:dc="http://purl.org/dc/elements/1.1/"
   xmlns:cc="http://creativecommons.org/ns#"
   xmlns:rdf="http://www.w3.org/1999/02/22-rdf-syntax-ns#"
   xmlns:svg="http://www.w3.org/2000/svg"
   xmlns="http://www.w3.org/2000/svg"
   xmlns:sodipodi="http://sodipodi.sourceforge.net/DTD/sodipodi-0.dtd"
   xmlns:inkscape="http://www.inkscape.org/namespaces/inkscape"
   width="8.1753082in"
   height="2.3870032in"
   viewBox="0 0 2452.5925 716.10169"
   version="1.1"
   id="svg43"
   sodipodi:docname="rokkit-ts-loggo.svg"
   inkscape:version="0.92.4 (5da689c313, 2019-01-14)">
  <metadata
     id="metadata49">
    <rdf:RDF>
      <cc:Work
         rdf:about="">
        <dc:format>image/svg+xml</dc:format>
        <dc:type
           rdf:resource="http://purl.org/dc/dcmitype/StillImage" />
        <dc:title></dc:title>
      </cc:Work>
    </rdf:RDF>
  </metadata>
  <defs
     id="defs47" />
  <sodipodi:namedview
     pagecolor="#ffffff"
     bordercolor="#666666"
     borderopacity="1"
     objecttolerance="10"
     gridtolerance="10"
     guidetolerance="10"
     inkscape:pageopacity="0"
     inkscape:pageshadow="2"
     inkscape:window-width="1920"
     inkscape:window-height="1017"
     id="namedview45"
     showgrid="false"
     inkscape:snap-page="false"
     inkscape:snap-text-baseline="false"
     fit-margin-top="0"
     fit-margin-left="0"
     fit-margin-right="0"
     fit-margin-bottom="0"
     inkscape:zoom="1.4750015"
     inkscape:cx="367.33394"
     inkscape:cy="157.27767"
     inkscape:window-x="-8"
     inkscape:window-y="-8"
     inkscape:window-maximized="1"
     inkscape:current-layer="flowRoot4570" />
  <path
     id="path7400-Kopie"
     d="m 497.8166,307.72079 c 0,0 -139.58,-139.58 -139.58,-139.58 0,0 -10.19,9.21 -10.19,9.21 0,0 140.43,140.42 140.43,140.42 0,0 9.34,-10.05 9.34,-10.05 z m -158.32,-122.13 c 0,0 140.76,140.77 140.76,140.77 -90.29,99.86 -191.28,170.46 -293.35,244.42 0,0 -91.699992,-91.71 -91.699992,-91.71 75.059992,-102.33 148.999992,-205.46 244.289992,-293.48 z m 179.04,98.64 c 0,0 -136.8,-136.8 -136.8,-136.8 0,0 -14.83,12.98 -14.83,12.98 0,0 138.63,138.63 138.63,138.63 0,0 13,-14.81 13,-14.81 z m -362.95,308.23 c 0,0 -82.079983,-82.08 -82.079983,-82.08 0,0 16.659991,-24.14 16.659991,-24.14 0,0 89.549992,89.55 89.549992,89.55 0,0 -24.13,16.67 -24.13,16.67 z m -21.45,4.11 c 0,0 -61.429983,61.43 -61.429983,61.43 0,0 -10.149994,-10.15 -10.149994,-10.15 0,0 61.429977,-61.43 61.429977,-61.43 0,0 10.15,10.15 10.15,10.15 z m -54.529986,-54.53 c 0,0 -61.42997,61.43 -61.42997,61.43 0,0 -10.1399944,-10.15 -10.1399944,-10.15 0,0 61.4199704,-61.42 61.4199704,-61.42 0,0 10.149994,10.14 10.149994,10.14 z m 26.879986,27.06 c 0,0 -95.799953,95.81 -95.799953,95.81 0,0 -9.97999404,-9.98 -9.97999404,-9.98 0,0 95.80995204,-95.8 95.80995204,-95.8 0,0 9.969995,9.97 9.969995,9.97 z m 454.46,-471.859997 c 0,0 8.33,-0.5 8.33,-0.5 -69.66,0.81 -131.97,12.629997 -180.99,44.409997 0,0 0,0 0,0 0,0 136.81,136.8 136.81,136.8 20.57,-33.44 40.01,-69.6 44.18,-181.209997 0,0 -0.28,8.559997 -0.28,8.559997 m -212.5,162.61 c -7.66,1.56 -14.12,3.92 -19.53,9.86 -17.1,18.79 -6.38,50.53 21.53,52.65 3.53,0.26 8.65,-0.76 12,-1.92 24.59,-8.55 28.15,-42.62 6,-55.97 -4.33,-2.61 -9.96,-4.36 -15,-4.62 -2,-0.28 -3.06,-0.1 -5,0 z m -75,81 c -7.66,1.56 -14.12,3.92 -19.53,9.86 -17.1,18.79 -6.38,50.53 21.53,52.65 3.53,0.26 8.65,-0.76 12,-1.92 24.59,-8.55 28.15,-42.62 6,-55.97 -4.33,-2.61 -9.96,-4.36 -15,-4.62 -2,-0.28 -3.06,-0.1 -5,0 z m -80,76 c -7.66,1.56 -14.12,3.92 -19.53,9.86 -17.1,18.79 -6.38,50.53 21.53,52.65 3.53,0.26 8.65,-0.76 12,-1.92 24.59,-8.55 28.15,-42.62 6,-55.97 -4.33,-2.61 -9.96,-4.36 -15,-4.62 -2,-0.28 -3.06,-0.1 -5,0 z"
     inkscape:connector-curvature="0"
     style="fill:none;stroke:#000000;stroke-width:1" />
  <g
     id="g3757"
     style="fill:#b0003a;fill-opacity:1;stroke:none"
     transform="matrix(1,0,0,0.9585799,17.220382,-94.837539)">
    <rect
       y="114.40678"
       x="597.45721"
       height="716.10168"
       width="9.5339146"
       id="rect51"
       style="opacity:1;fill:#b0003a;fill-opacity:1;fill-rule:nonzero;stroke:none;stroke-width:3.1299243;stroke-linecap:round;stroke-linejoin:miter;stroke-miterlimit:4;stroke-dasharray:none;stroke-opacity:1;paint-order:fill markers stroke" />
  </g>
  <g
     aria-label="Rokkit.ts"
     transform="matrix(7.4619067,0,0,7.4619067,-888.94064,-421.27037)"
     style="font-style:normal;font-variant:normal;font-weight:normal;font-stretch:normal;font-size:64px;line-height:1.25;font-family:'Roboto Light';-inkscape-font-specification:'Roboto Light, ';font-variant-ligatures:normal;font-variant-caps:normal;font-variant-numeric:normal;font-feature-settings:normal;text-align:start;letter-spacing:0px;word-spacing:0px;writing-mode:lr-tb;text-anchor:start;fill:#28404d;fill-opacity:1;stroke:none"
     id="flowRoot4570">
    <path
       d="m 231.5625,106.21484 h -13.21875 v 18.9375 h -3.875 V 79.652344 H 229.25 q 7.28125,0 11.375,3.53125 4.09375,3.53125 4.09375,9.875 0,4.375 -2.5625,7.718746 -2.5625,3.34375 -6.875,4.625 l 11.375,19.34375 v 0.40625 h -4.09375 z m -13.21875,-3.28125 H 230.125 q 4.84375,0 7.78125,-2.75 2.9375,-2.749996 2.9375,-7.124996 0,-4.8125 -3.0625,-7.46875 -3.0625,-2.65625 -8.59375,-2.65625 h -10.84375 z"
       style=""
       id="path4610" />
    <path
       d="m 252.25,107.74609 q 0,-4.875 1.875,-8.781246 1.90625,-3.90625 5.34375,-6.0625 3.46875,-2.1875 7.84375,-2.1875 6.75,0 10.9375,4.75 4.1875,4.718746 4.1875,12.531246 v 0.78125 q 0,4.90625 -1.90625,8.84375 -1.875,3.90625 -5.3125,6.03125 -3.4375,2.125 -7.84375,2.125 -6.71875,0 -10.9375,-4.71875 -4.1875,-4.75 -4.1875,-12.5625 z m 3.75,1.03125 q 0,6.0625 3.125,9.96875 3.15625,3.875 8.25,3.875 5.0625,0 8.1875,-3.875 3.15625,-3.90625 3.15625,-10.28125 v -0.71875 q 0,-3.875 -1.4375,-7.09375 -1.4375,-3.218746 -4.03125,-4.968746 -2.59375,-1.78125 -5.9375,-1.78125 -5,0 -8.15625,3.9375 Q 256,101.74609 256,108.08984 Z"
       style=""
       id="path4612" />
    <path
       d="m 298.21875,108.12109 -4.28125,4.125 v 12.90625 h -3.75 V 77.152344 h 3.75 v 30.718746 l 3.53125,-3.8125 12.9375,-12.718746 h 4.71875 l -14.34375,14.249996 15.59375,19.5625 h -4.46875 z"
       style=""
       id="path4614" />
    <path
       d="m 329.59375,108.12109 -4.28125,4.125 v 12.90625 h -3.75 V 77.152344 h 3.75 v 30.718746 l 3.53125,-3.8125 12.9375,-12.718746 H 346.5 l -14.34375,14.249996 15.59375,19.5625 h -4.46875 z"
       style=""
       id="path4616" />
    <path
       d="m 357.125,125.15234 h -3.75 V 91.339844 h 3.75 z m -4.40625,-43.593746 q 0,-1.0625 0.6875,-1.78125 0.6875,-0.75 1.875,-0.75 1.1875,0 1.875,0.75 0.71875,0.71875 0.71875,1.78125 0,1.0625 -0.71875,1.78125 -0.6875,0.71875 -1.875,0.71875 -1.1875,0 -1.875,-0.71875 -0.6875,-0.71875 -0.6875,-1.78125 z"
       style=""
       id="path4618" />
    <path
       d="m 373.125,82.683594 v 8.65625 h 7 v 3.0625 h -7 v 22.531246 q 0,2.8125 1,4.1875 1.03125,1.375 3.40625,1.375 0.9375,0 3.03125,-0.3125 l 0.15625,3.0625 q -1.46875,0.53125 -4,0.53125 -3.84375,0 -5.59375,-2.21875 -1.75,-2.25 -1.75,-6.59375 V 94.402344 h -6.21875 v -3.0625 h 6.21875 v -8.65625 z"
       style=""
       id="path4620" />
    <path
       d="m 387.59375,122.90234 q 0,-1.09375 0.6875,-1.84375 0.71875,-0.78125 1.96875,-0.78125 1.25,0 1.96875,0.78125 0.71875,0.75 0.71875,1.84375 0,1.09375 -0.71875,1.8125 -0.71875,0.6875 -1.96875,0.6875 -1.25,0 -1.96875,-0.6875 -0.6875,-0.71875 -0.6875,-1.8125 z"
       style="fill:#b0003a;fill-opacity:1"
       id="path4622" />
    <path
       d="m 409,82.683594 v 8.65625 h 7 v 3.0625 h -7 v 22.531246 q 0,2.8125 1,4.1875 1.03125,1.375 3.40625,1.375 0.9375,0 3.03125,-0.3125 l 0.15625,3.0625 q -1.46875,0.53125 -4,0.53125 -3.84375,0 -5.59375,-2.21875 -1.75,-2.25 -1.75,-6.59375 V 94.402344 h -6.21875 v -3.0625 H 405.25 v -8.65625 z"
       style=""
       id="path4624" />
    <path
       d="m 444.0625,116.55859 q 0,-2.78125 -2.25,-4.46875 -2.21875,-1.6875 -6.71875,-2.625 -4.5,-0.96875 -7,-2.1875 -2.46875,-1.25 -3.6875,-3.03125 -1.1875,-1.78125 -1.1875,-4.312496 0,-4 3.34375,-6.59375 3.34375,-2.625 8.5625,-2.625 5.65625,0 9.0625,2.8125 3.4375,2.78125 3.4375,7.281246 h -3.75 q 0,-2.968746 -2.5,-4.937496 -2.46875,-1.96875 -6.25,-1.96875 -3.6875,0 -5.9375,1.65625 -2.21875,1.625 -2.21875,4.25 0,2.531246 1.84375,3.937496 1.875,1.375 6.78125,2.53125 4.9375,1.15625 7.375,2.46875 2.46875,1.3125 3.65625,3.15625 1.1875,1.84375 1.1875,4.46875 0,4.28125 -3.46875,6.84375 -3.4375,2.5625 -9,2.5625 -5.90625,0 -9.59375,-2.84375 -3.65625,-2.875 -3.65625,-7.25 h 3.75 q 0.21875,3.28125 2.75,5.125 2.5625,1.8125 6.75,1.8125 3.90625,0 6.3125,-1.71875 2.40625,-1.71875 2.40625,-4.34375 z"
       style=""
       id="path4626" />
  </g>
  <path
     style="opacity:1;fill:#28404d;fill-opacity:1;fill-rule:nonzero;stroke:#28404d;stroke-width:0.9602977;stroke-linecap:round;stroke-linejoin:miter;stroke-miterlimit:4;stroke-dasharray:none;stroke-opacity:1;paint-order:fill markers stroke"
     d="m 146.41673,66.353652 -21.37993,-21.395776 7.55231,-3.544082 c 10.56319,-4.956996 24.34681,-8.264238 37.87949,-9.088804 l 11.28506,-0.687615 -0.5617,7.20239 c -1.5268,19.57714 -4.28367,31.752177 -9.56421,42.237925 -1.84791,3.669455 -3.46587,6.671737 -3.59546,6.671737 -0.1296,0 -9.8566,-9.628099 -21.61556,-21.395775 z"
     id="path4582"
     inkscape:connector-curvature="0"
     transform="scale(3.1250016)" />
  <path
     style="opacity:1;fill:#28404d;fill-opacity:1;fill-rule:nonzero;stroke:#28404d;stroke-width:0.48014885;stroke-linecap:round;stroke-linejoin:miter;stroke-miterlimit:4;stroke-dasharray:none;stroke-opacity:1;paint-order:fill markers stroke"
     d="m 139.80247,73.336311 -21.81242,-21.865158 2.12886,-1.914131 2.12886,-1.914131 21.48129,21.477312 c 11.81471,11.812521 21.48129,21.612262 21.48129,21.7772 0,0.164939 -0.80898,1.200829 -1.79773,2.301978 l -1.79772,2.002091 z"
     id="path4584"
     inkscape:connector-curvature="0"
     transform="scale(3.1250016)" />
  <path
     style="opacity:1;fill:#28404d;fill-opacity:1;fill-rule:nonzero;stroke:#28404d;stroke-width:0.48014885;stroke-linecap:round;stroke-linejoin:miter;stroke-miterlimit:4;stroke-dasharray:none;stroke-opacity:1;paint-order:fill markers stroke"
     d="m 134.20538,78.732028 -22.12336,-22.167488 1.31155,-1.045171 1.31155,-1.045172 22.01028,22.014185 22.01029,22.014185 -1.19848,1.198475 -1.19847,1.198478 z"
     id="path4586"
     inkscape:connector-curvature="0"
     transform="scale(3.1250016)" />
  <path
     style="opacity:1;fill:#28404d;fill-opacity:1;fill-rule:nonzero;stroke:#28404d;stroke-width:0.48014885;stroke-linecap:round;stroke-linejoin:miter;stroke-miterlimit:4;stroke-dasharray:none;stroke-opacity:1;paint-order:fill markers stroke"
     d="m 45.207727,167.62983 -14.290268,-14.29622 8.969415,-12.1903 C 56.238478,118.91993 70.527102,100.6291 80.118662,89.642722 87.440196,81.256476 99.957517,68.0152 104.41462,63.94157 l 4.30899,-3.938249 22.2795,22.279498 22.27949,22.279501 -9.01718,9.12896 c -15.83549,16.03179 -30.52161,28.59248 -54.080219,46.25353 -10.749843,8.05878 -29.968803,21.98124 -30.343519,21.98124 -0.189027,0 -6.774307,-6.4333 -14.633955,-14.29622 z m 24.842929,-12.4205 c 5.162637,-2.57048 7.367774,-9.05451 4.780719,-14.05733 -1.843131,-3.56422 -6.950355,-6.19128 -10.677153,-5.49213 -3.574902,0.67065 -6.286723,2.64205 -7.862622,5.71582 -1.468207,2.86373 -1.080321,7.69735 0.836559,10.42474 2.998942,4.26697 8.359185,5.68099 12.922497,3.4089 z M 94.14069,131.50938 c 2.700321,-0.67995 5.94844,-3.71769 6.82941,-6.38708 0.96262,-2.91675 0.36029,-7.17623 -1.348317,-9.53489 -4.573466,-6.31348 -14.573403,-5.2729 -17.8759,1.86016 -1.298899,2.80549 -1.160421,5.80792 0.40947,8.87819 1.440535,2.81729 2.770187,3.99835 5.660597,5.02801 2.34927,0.83689 3.506105,0.86535 6.32474,0.15561 z m 26.13597,-26.86666 c 1.09195,-0.60366 2.64212,-2.033 3.44483,-3.17629 1.32502,-1.887235 1.45947,-2.424406 1.45947,-5.831284 0,-3.397721 -0.13641,-3.946645 -1.44257,-5.805084 -2.84372,-4.046122 -8.71769,-5.579366 -13.0018,-3.393777 -5.35499,2.731915 -7.33295,8.591974 -4.69014,13.895405 2.67104,5.36008 8.91242,7.2509 14.23021,4.31103 z"
     id="path4588"
     inkscape:connector-curvature="0"
     transform="scale(3.1250016)" />
  <path
     style="opacity:1;fill:#28404d;fill-opacity:1;fill-rule:nonzero;stroke:#28404d;stroke-width:0.48014885;stroke-linecap:round;stroke-linejoin:miter;stroke-miterlimit:4;stroke-dasharray:none;stroke-opacity:1;paint-order:fill markers stroke"
     d="m 36.953209,176.15405 -12.879818,-12.88644 2.305841,-3.37472 c 1.268212,-1.85609 2.446082,-3.37471 2.617489,-3.37471 0.171407,0 6.539864,6.23099 14.152127,13.84665 l 13.840477,13.84665 -3.578149,2.41451 -3.578149,2.41451 z"
     id="path4590"
     inkscape:connector-curvature="0"
     transform="scale(3.1250016)" />
  <path
     style="opacity:1;fill:#28404d;fill-opacity:1;fill-rule:nonzero;stroke:none;stroke-width:0.48014885;stroke-linecap:round;stroke-linejoin:miter;stroke-miterlimit:4;stroke-dasharray:none;stroke-opacity:1;paint-order:fill markers stroke"
     d=""
     id="path4592"
     inkscape:connector-curvature="0"
     transform="scale(3.1250016)" />
  <path
     style="opacity:1;fill:#b0003a;fill-opacity:1;fill-rule:nonzero;stroke:#b0003a;stroke-width:0.48014885;stroke-linecap:round;stroke-linejoin:miter;stroke-miterlimit:4;stroke-dasharray:none;stroke-opacity:1;paint-order:fill markers stroke"
     d="m 21.854706,208.51447 -1.142776,-1.21643 9.586155,-9.58615 9.586155,-9.58616 1.118195,1.51244 1.118194,1.51244 -9.280982,9.29015 c -5.10454,5.10958 -9.407248,9.29014 -9.561573,9.29014 -0.154325,0 -0.79484,-0.54739 -1.423368,-1.21643 z"
     id="path4594"
     inkscape:connector-curvature="0"
     transform="scale(3.1250016)" />
  <path
     style="opacity:1;fill:#b0003a;fill-opacity:1;fill-rule:nonzero;stroke:#b0003a;stroke-width:0.48014885;stroke-linecap:round;stroke-linejoin:miter;stroke-miterlimit:4;stroke-dasharray:none;stroke-opacity:1;paint-order:fill markers stroke"
     d="m 2.0912267,210.80921 -1.29011319,-1.34658 14.98639849,-14.98074 14.986399,-14.98073 1.290114,1.34658 1.290113,1.34659 L 18.367739,197.17507 3.38134,212.1558 Z"
     id="path4596"
     inkscape:connector-curvature="0"
     transform="scale(3.1250016)" />
  <path
     style="opacity:1;fill:#b0003a;fill-opacity:1;fill-rule:nonzero;stroke:#b0003a;stroke-width:0.48014885;stroke-linecap:round;stroke-linejoin:miter;stroke-miterlimit:4;stroke-dasharray:none;stroke-opacity:1;paint-order:fill markers stroke"
     d="m 4.4866209,191.15242 -1.2901383,-1.34662 9.4749444,-9.46606 9.474944,-9.46606 1.290138,1.34662 1.290138,1.34661 -9.474944,9.46606 -9.4749438,9.46606 z"
     id="path4598"
     inkscape:connector-curvature="0"
     transform="scale(3.1250016)" />
</svg>
