<svg height="3.33333in"
  viewBox="0 0 900 1000" width="3in"
  xmlns="http://www.w3.org/2000/svg">
  <path d="M 670.32,428.12
           C 670.32,428.12 530.74,288.54 530.74,288.54
             530.74,288.54 520.55,297.75 520.55,297.75
             520.55,297.75 660.98,438.17 660.98,438.17
             660.98,438.17 670.32,428.12 670.32,428.12 Z
           M 512.00,305.99
           C 512.00,305.99 652.76,446.76 652.76,446.76
             562.47,546.62 461.48,617.22 359.41,691.18
             359.41,691.18 267.71,599.47 267.71,599.47
             342.77,497.14 416.71,394.01 512.00,305.99 Z
           M 691.04,404.63
           C 691.04,404.63 554.24,267.83 554.24,267.83
             554.24,267.83 539.41,280.81 539.41,280.81
             539.41,280.81 678.04,419.44 678.04,419.44
             678.04,419.44 691.04,404.63 691.04,404.63 Z
           M 328.09,712.86
           C 328.09,712.86 246.01,630.78 246.01,630.78
             246.01,630.78 262.67,606.64 262.67,606.64
             262.67,606.64 352.22,696.19 352.22,696.19
             352.22,696.19 328.09,712.86 328.09,712.86 Z
           M 306.64,716.97
           C 306.64,716.97 245.21,778.40 245.21,778.40
             245.21,778.40 235.06,768.25 235.06,768.25
             235.06,768.25 296.49,706.82 296.49,706.82
             296.49,706.82 306.64,716.97 306.64,716.97 Z
           M 252.11,662.44
           C 252.11,662.44 190.68,723.87 190.68,723.87
             190.68,723.87 180.54,713.72 180.54,713.72
             180.54,713.72 241.96,652.30 241.96,652.30
             241.96,652.30 252.11,662.44 252.11,662.44 Z
           M 278.99,689.50
           C 278.99,689.50 183.19,785.31 183.19,785.31
             183.19,785.31 173.21,775.33 173.21,775.33
             173.21,775.33 269.02,679.53 269.02,679.53
             269.02,679.53 278.99,689.50 278.99,689.50 Z
           M 733.45,217.64
           C 733.45,217.64 741.78,217.14 741.78,217.14
             672.12,217.95 609.81,229.77 560.79,261.55
             560.79,261.55 560.79,261.55 560.79,261.55
             560.79,261.55 697.60,398.35 697.60,398.35
             718.17,364.91 737.61,328.75 741.78,217.14
             741.78,217.14 741.50,225.70 741.50,225.70"
    fill="#28404d" id="path7400" stroke="#28404d"
    stroke-width="1"/>
</svg>
